<?xml version="1.0" encoding="UTF-8"?>
<svg width="40" height="40" viewBox="0 0 40 40" fill="none" xmlns="http://www.w3.org/2000/svg">
  <!-- Calendar Icon -->
  <rect x="8" y="10" width="24" height="20" rx="2" fill="#3B82F6" stroke="#1D4ED8" stroke-width="2"/>
  <line x1="8" y1="16" x2="32" y2="16" stroke="#1D4ED8" stroke-width="2"/>
  <line x1="14" y1="8" x2="14" y2="14" stroke="#1D4ED8" stroke-width="2" stroke-linecap="round"/>
  <line x1="26" y1="8" x2="26" y2="14" stroke="#1D4ED8" stroke-width="2" stroke-linecap="round"/>
  
  <!-- Sync Arrows -->
  <path d="M20 22L18 20M20 22L22 20M20 18L18 20M20 18L22 20" stroke="white" stroke-width="2" stroke-linecap="round"/>
  <path d="M16 20C16 17.7909 17.7909 16 20 16C21.8638 16 23.4299 17.2748 23.874 19" stroke="white" stroke-width="2" stroke-linecap="round"/>
  <path d="M24 20C24 22.2091 22.2091 24 20 24C18.1362 24 16.5701 22.7252 16.126 21" stroke="white" stroke-width="2" stroke-linecap="round"/>
</svg>
